<?xml version="1.0" standalone="no"?>
<!DOCTYPE svg PUBLIC "-//W3C//DTD SVG 20010904//EN"
 "http://www.w3.org/TR/2001/REC-SVG-20010904/DTD/svg10.dtd">
<svg version="1.0" xmlns="http://www.w3.org/2000/svg"
 width="700.000000pt" height="700.000000pt" viewBox="0 0 700.000000 700.000000"
 preserveAspectRatio="xMidYMid meet">
<metadata>
Created by potrace 1.11, written by Peter Selinger 2001-2013
</metadata>
<g transform="translate(0.000000,700.000000) scale(0.100000,-0.100000)"
fill="#000000" stroke="none">
<path d="M3218 6995 c-1 -1 -50 -5 -108 -8 -223 -13 -483 -58 -675 -119 -55
-17 -107 -34 -115 -38 -8 -4 -42 -20 -75 -36 -150 -69 -304 -197 -367 -305
-34 -58 -66 -153 -68 -204 -1 -22 -2 -225 -1 -451 l1 -410 841 0 c462 1 844
-1 848 -4 4 -3 8 -57 8 -121 l-1 -117 -1247 0 c-1330 0 -1325 0 -1464 -49
-157 -57 -253 -118 -372 -237 -187 -189 -302 -434 -372 -791 -37 -189 -46
-311 -46 -600 1 -326 11 -448 60 -710 67 -351 241 -679 448 -844 107 -84 254
-154 357 -169 25 -4 196 -7 380 -7 l335 0 1 470 c0 259 4 488 8 510 26 163 52
248 113 370 132 267 371 429 694 471 30 4 479 8 999 9 520 1 960 5 978 9 232
47 317 78 444 162 194 129 305 305 348 549 16 90 18 189 19 971 1 597 -2 887
-9 925 -63 312 -340 550 -785 673 -110 31 -332 72 -439 81 -43 4 -88 9 -100
12 -23 5 -632 13 -638 8z m-550 -565 c66 -29 131 -99 156 -171 43 -120 11
-246 -83 -331 -172 -155 -444 -69 -496 157 -14 60 -11 112 12 180 23 71 111
156 184 178 70 21 159 16 227 -13z"/>
<path d="M5419 5228 c-1 -2 -3 -217 -4 -478 -2 -261 -6 -486 -8 -500 -3 -14
-8 -43 -12 -65 -45 -268 -180 -495 -376 -630 -108 -74 -274 -133 -427 -151
-31 -4 -482 -8 -1002 -9 -520 -2 -956 -6 -970 -9 -14 -3 -38 -9 -55 -11 -205
-36 -389 -128 -515 -255 -130 -132 -200 -280 -229 -490 -14 -96 -14 -1785 0
-1852 55 -274 281 -495 635 -624 145 -52 361 -103 508 -120 23 -2 55 -6 71 -9
188 -27 771 -27 1000 0 73 9 120 15 140 19 11 2 43 7 70 10 221 31 496 129
650 230 130 86 226 201 270 323 l24 66 -2 451 -2 451 -820 2 c-451 1 -832 2
-846 2 l-26 1 1 118 1 117 1250 2 c848 1 1271 6 1315 13 318 54 596 280 749
611 69 151 139 396 156 554 4 33 9 62 10 65 21 37 26 673 6 835 -7 55 -14 114
-16 130 -1 17 -7 57 -13 90 -6 33 -13 71 -16 85 -27 156 -122 425 -189 535
-128 210 -252 332 -419 414 -152 74 -152 74 -550 79 -197 2 -359 2 -359 0z
m-845 -4097 c130 -50 214 -206 184 -346 -41 -191 -243 -296 -420 -217 -197 87
-244 343 -90 497 83 83 212 109 326 66z"/>
</g>
</svg>
